<?xml version="1.0" encoding="UTF-8"?>
<svg viewBox="0 0 626 646" xmlns="http://www.w3.org/2000/svg" xmlns:xlink="http://www.w3.org/1999/xlink">
 <defs>
  <filter id="o">
   <feGaussianBlur stdDeviation="6.154"/>
  </filter>
  <filter id="n">
   <feGaussianBlur stdDeviation="10.71"/>
  </filter>
  <filter id="e">
   <feGaussianBlur stdDeviation=".93338"/>
  </filter>
  <linearGradient id="f">
   <stop stop-color="#fff" offset="0"/>
   <stop stop-color="#fff" stop-opacity="0" offset="1"/>
  </linearGradient>
  <linearGradient id="g">
   <stop stop-color="#214169" offset="0"/>
   <stop stop-color="#adc6e5" offset="1"/>
  </linearGradient>
  <linearGradient id="m" x1="342.86" x2="345.14" y1="403.79" y2="719.22" gradientUnits="userSpaceOnUse">
   <stop stop-color="#729fcf" offset="0"/>
   <stop stop-color="#3465a4" offset="1"/>
  </linearGradient>
  <linearGradient id="j" x2="0" y1="829.94" y2="708.88" gradientUnits="userSpaceOnUse">
   <stop stop-color="#204a87" offset="0"/>
   <stop stop-color="#204a87" stop-opacity="0" offset="1"/>
  </linearGradient>
  <linearGradient id="h" x2="0" y1="278.55" y2="688.67" gradientUnits="userSpaceOnUse">
   <stop stop-color="#88add7" offset="0"/>
   <stop stop-color="#729fcf" offset="1"/>
  </linearGradient>
  <linearGradient id="a" x2="0" y1="74.978" y2="118.79" gradientUnits="userSpaceOnUse">
   <stop stop-color="#f2f6fb" offset="0"/>
   <stop stop-color="#f2f6fb" stop-opacity="0" offset="1"/>
  </linearGradient>
  <linearGradient id="l" x2="0" y1="663.22" y2="209.22" gradientUnits="userSpaceOnUse" xlink:href="#g"/>
  <linearGradient id="k" x2="0" y1="697.22" y2="243.22" gradientUnits="userSpaceOnUse" xlink:href="#g"/>
  <linearGradient id="i" x2="0" y1="260.4" y2="426.07" gradientUnits="userSpaceOnUse" xlink:href="#f"/>
  <linearGradient id="d" x2="0" y1="169.59" y2="182.22" gradientTransform="matrix(0 1.275 -.22782 0 523.15 -493.83)" gradientUnits="userSpaceOnUse" xlink:href="#f"/>
  <linearGradient id="c" x2="0" y1="169.59" y2="182.22" gradientTransform="matrix(0 1.275 .22782 0 493 -493.83)" gradientUnits="userSpaceOnUse" xlink:href="#f"/>
  <linearGradient id="b" x2="0" y1="-123.45" y2="-120.58" gradientUnits="userSpaceOnUse" xlink:href="#f"/>
 </defs>
 <g transform="translate(-74 -209.22)">
  <path d="m162.92 249.22h462.16a68.919 68.919 0 0 1 68.919 68.919v462.16a68.919 68.919 0 0 1 -68.919 68.919h-462.16a68.919 68.919 0 0 1 -68.919 -68.919v-462.16a68.919 68.919 0 0 1 68.919 -68.919" fill="#2e3436" filter="url(#n)" opacity=".75" stroke="url(#k)" stroke-linecap="square" stroke-linejoin="round" stroke-width="12"/>
  <path d="m148.92 215.22h462.16a68.919 68.919 0 0 1 68.919 68.919v462.16a68.919 68.919 0 0 1 -68.919 68.919h-462.16a68.919 68.919 0 0 1 -68.919 -68.919v-462.16a68.919 68.919 0 0 1 68.919 -68.919" fill="url(#m)" stroke="url(#l)" stroke-linecap="square" stroke-linejoin="round" stroke-width="12"/>
  <path d="m201.94 256.46h14.07a80.884 80.884 0 0 1 80.884 80.884v371.33a80.884 80.884 0 0 1 -80.884 80.884h-14.07a80.884 80.884 0 0 1 -80.884 -80.884v-371.33a80.884 80.884 0 0 1 80.884 -80.884" fill="#2e3436" filter="url(#o)" opacity=".75"/>
  <path d="m210.57 234.23a81.429 81.498 0 0 1 81.429 81.498v374.15a81.429 81.498 0 0 1 -81.429 81.498 81.429 81.498 0 0 1 -81.429 -81.498v-374.15a81.429 81.498 0 0 1 81.429 -81.498" fill="url(#h)"/>
  <path d="m211.86 239.66c40.075 0 72.337 32.29 72.337 72.398v142.27c0 40.109-32.262 72.398-72.337 72.398s-72.337-32.29-72.337-72.398v-142.27c0-40.109 32.262-72.398 72.337-72.398z" fill="url(#i)" opacity=".89437"/>
  <path d="m282.17 692.72c0 40.109-32.262 72.398-72.337 72.398s-72.337-32.29-72.337-72.398h144.67z" fill="url(#j)"/>
  <g transform="matrix(1 0 0 -1 0 577.72)">
   <path d="m338 282.36h336v7h-336z" fill="#abc4e3" opacity=".75"/>
   <path d="m338 288.36h336v7h-336z" fill="#3a597f" opacity=".75"/>
  </g>
  <g transform="matrix(1 0 0 -1 0 557.72)">
   <path d="m338 282.36h336l-1.4142 7h-334.59v-7z" fill="#abc4e3" opacity=".75"/>
   <path d="m338 288.36h334.59l-2.5858 7h-332v-7z" fill="#3a597f" opacity=".75"/>
  </g>
  <g transform="matrix(1 0 0 -1 0 535.72)">
   <path d="m338 282.36h328l-4 7h-324v-7z" fill="#abc4e3" opacity=".75"/>
   <path d="m338 288.36h324l-4 7h-320v-7z" fill="#3a597f" opacity=".75"/>
  </g>
  <g transform="translate(-98,241)">
   <path d="m479.42 119.69h56.569v67.882h-56.569z" fill="#2e3436"/>
   <path transform="matrix(1 0 0 .88215 2 15.589)" d="m478.56 132.27h56.569v67.882h-56.569z" fill="#2e3436" filter="url(#e)" opacity=".75"/>
   <path transform="matrix(1.2783 0 0 1.2783 -688.99 26.04)" d="m927.67 107.17h6.4453v-18.926l-5.9961 1.4844v-5.1953l6.0352-1.4453h5.5664v24.082h6.4453v5.0781h-18.496v-5.0781" fill="url(#a)"/>
   <path d="m481.62 123.34v57.281h2.9062v-57.281h-2.9062z" fill="url(#d)"/>
   <path d="m531.62 123.34v57.281h2.9062v-57.281h-2.9062z" fill="url(#c)"/>
   <path transform="scale(-1)" d="m-534.07-123.45h51.789v2.8765h-51.789z" fill="url(#b)"/>
  </g>
  <g transform="translate(-98 342.46)">
   <path d="m479.42 119.69h56.569v67.882h-56.569z" fill="#2e3436"/>
   <path transform="matrix(1 0 0 .88215 2 15.589)" d="m478.56 132.27h56.569v67.882h-56.569z" fill="#2e3436" filter="url(#e)" opacity=".75"/>
   <path transform="matrix(1.2783 0 0 1.2783 -688.99 26.04)" d="m937.55 89.491-7.3633 11.523h7.3633v-11.523m-0.50781-6.4062h6.0352v17.93h3.2031v4.9414h-3.2031v6.2891h-5.5273v-6.2891h-11.562v-5.5859l11.055-17.285" fill="url(#a)"/>
   <path d="m481.62 123.34v57.281h2.9062v-57.281h-2.9062z" fill="url(#d)"/>
   <path d="m531.62 123.34v57.281h2.9062v-57.281h-2.9062z" fill="url(#c)"/>
   <path transform="scale(-1)" d="m-534.07-123.45h51.789v2.8765h-51.789z" fill="url(#b)"/>
  </g>
  <g transform="translate(-98 443.91)">
   <path d="m479.42 119.69h56.569v67.882h-56.569z" fill="#2e3436"/>
   <path transform="matrix(1 0 0 .88215 2 15.589)" d="m478.56 132.27h56.569v67.882h-56.569z" fill="#2e3436" filter="url(#e)" opacity=".75"/>
   <path transform="matrix(1.2783 0 0 1.2783 -688.99 26.04)" d="m926.64 83.085h18.438v4.082l-9.8828 25.078h-5.8789l9.4922-24.082h-12.168v-5.0781" fill="url(#a)"/>
   <path d="m481.62 123.34v57.281h2.9062v-57.281h-2.9062z" fill="url(#d)"/>
   <path d="m531.62 123.34v57.281h2.9062v-57.281h-2.9062z" fill="url(#c)"/>
   <path transform="scale(-1)" d="m-534.07-123.45h51.789v2.8765h-51.789z" fill="url(#b)"/>
  </g>
  <g transform="translate(-98 545.37)">
   <path d="m479.42 119.69h56.569v67.882h-56.569z" fill="#2e3436"/>
   <path transform="matrix(1 0 0 .88215 2 15.589)" d="m478.56 132.27h56.569v67.882h-56.569z" fill="#2e3436" filter="url(#e)" opacity=".75"/>
   <path transform="matrix(1.2783 0 0 1.2783 -688.99 26.04)" d="m945.64 88.475-6.4453 3.3789 6.4453 3.3984-1.4844 2.7539-6.4844-3.5938v6.7188h-3.3594v-6.7188l-6.4648 3.5938-1.4844-2.7539 6.4844-3.3984-6.4844-3.3789 1.4844-2.7539 6.4648 3.5547v-6.7188h3.3594v6.7188l6.4844-3.5547 1.4844 2.7539" fill="url(#a)"/>
   <path d="m481.62 123.34v57.281h2.9062v-57.281h-2.9062z" fill="url(#d)"/>
   <path d="m531.62 123.34v57.281h2.9062v-57.281h-2.9062z" fill="url(#c)"/>
   <path transform="scale(-1)" d="m-534.07-123.45h51.789v2.8765h-51.789z" fill="url(#b)"/>
  </g>
  <g transform="translate(-17.598 241)">
   <path d="m479.42 119.69h56.569v67.882h-56.569z" fill="#2e3436"/>
   <path transform="matrix(1 0 0 .88215 2 15.589)" d="m478.56 132.27h56.569v67.882h-56.569z" fill="#2e3436" filter="url(#e)" opacity=".75"/>
   <path transform="matrix(1.2783 0 0 1.2783 -688.99 26.04)" d="m932.48 107.17h12.285v5.0781h-18.516v-4.9219l3.125-3.3203c3.7109-3.9453 5.9635-6.3737 6.7578-7.2852 0.97655-1.1198 1.6797-2.1094 2.1094-2.9688 0.42967-0.87238 0.64452-1.7318 0.64453-2.5781-1e-5 -1.3021-0.39715-2.3047-1.1914-3.0078-0.78127-0.71612-1.8946-1.0742-3.3398-1.0742-1.0286 3e-5 -2.1875 0.20836-3.4766 0.625-1.276 0.40367-2.6107 0.99612-4.0039 1.7773v-5.3711c1.3932-0.50778 2.7539-0.8919 4.082-1.1523 1.3411-0.27341 2.6237-0.41013 3.8477-0.41016 3.0859 3e-5 5.5078 0.72269 7.2656 2.168 1.7708 1.4323 2.6562 3.392 2.6562 5.8789-2e-5 1.1458-0.19534 2.2201-0.58594 3.2227-0.37763 1.0026-1.0352 2.1159-1.9727 3.3398-0.69012 0.88543-2.5846 2.8776-5.6836 5.9766-1.6797 1.6797-3.0143 3.0208-4.0039 4.0234" fill="url(#a)"/>
   <path d="m481.62 123.34v57.281h2.9062v-57.281h-2.9062z" fill="url(#d)"/>
   <path d="m531.62 123.34v57.281h2.9062v-57.281h-2.9062z" fill="url(#c)"/>
   <path transform="scale(-1)" d="m-534.07-123.45h51.789v2.8765h-51.789z" fill="url(#b)"/>
  </g>
  <g transform="translate(-17.598 342.46)">
   <path d="m479.42 119.69h56.569v67.882h-56.569z" fill="#2e3436"/>
   <path transform="matrix(1 0 0 .88215 2 15.589)" d="m478.56 132.27h56.569v67.882h-56.569z" fill="#2e3436" filter="url(#e)" opacity=".75"/>
   <path transform="matrix(1.2783 0 0 1.2783 -688.99 26.04)" d="m927.77 83.085h15.84v5.0781h-11.172v5.4102c0.46874-0.18227 0.97004-0.31248 1.5039-0.39063 0.53384-0.09113 1.1002-0.1367 1.6992-0.13672 2.8906 2e-5 5.2344 0.91148 7.0313 2.7344s2.6953 4.1927 2.6953 7.1094c-2e-5 3.0599-0.97659 5.4818-2.9297 7.2656-1.9401 1.7708-4.5899 2.6562-7.9492 2.6562-1.25 0-2.513-0.10416-3.7891-0.3125s-2.5781-0.52083-3.9062-0.9375v-5.1953c1.0807 0.53386 2.1875 0.93751 3.3203 1.2109 1.1458 0.26042 2.2917 0.39063 3.4375 0.39062 2.0312 1e-5 3.5742-0.42968 4.6289-1.2891 1.0547-0.87239 1.582-2.1354 1.582-3.7891-2e-5 -1.5234-0.52736-2.7409-1.582-3.6524-1.0417-0.92446-2.4349-1.3867-4.1797-1.3867-1.0286 1e-5 -2.0638 0.13022-3.1055 0.39063-1.0286 0.24741-2.0703 0.62501-3.125 1.1328v-16.289" fill="url(#a)"/>
   <path d="m481.62 123.34v57.281h2.9062v-57.281h-2.9062z" fill="url(#d)"/>
   <path d="m531.62 123.34v57.281h2.9062v-57.281h-2.9062z" fill="url(#c)"/>
   <path transform="scale(-1)" d="m-534.07-123.45h51.789v2.8765h-51.789z" fill="url(#b)"/>
  </g>
  <g transform="translate(-17.598 443.91)">
   <path d="m479.42 119.69h56.569v67.882h-56.569z" fill="#2e3436"/>
   <path transform="matrix(1 0 0 .88215 2 15.589)" d="m478.56 132.27h56.569v67.882h-56.569z" fill="#2e3436" filter="url(#e)" opacity=".75"/>
   <path transform="matrix(1.2783 0 0 1.2783 -688.99 26.04)" d="m936.03 99.237c-1.2891 1e-5 -2.3307 0.41017-3.125 1.2305-0.79428 0.80731-1.1914 1.8815-1.1914 3.2227s0.39713 2.4219 1.1914 3.2422 1.8359 1.2305 3.125 1.2305 2.3307-0.41667 3.125-1.25c0.80728-0.83333 1.2109-1.9076 1.2109-3.2227-2e-5 -1.3411-0.39715-2.4154-1.1914-3.2227-0.79428-0.8203-1.8425-1.2304-3.1445-1.2305m-4.2773-2.4414c-1.4714-0.5078-2.5912-1.3021-3.3594-2.3828-0.76823-1.0937-1.1524-2.4284-1.1523-4.0039-1e-5 -2.4218 0.78775-4.3359 2.3633-5.7422s3.7174-2.1094 6.4258-2.1094c2.7213 3e-5 4.8698 0.70315 6.4453 2.1094s2.3633 3.3203 2.3633 5.7422c-2e-5 1.5625-0.37762 2.8906-1.1328 3.9844-0.75523 1.0808-1.8555 1.8815-3.3008 2.4023 1.6146 0.49481 2.8776 1.3802 3.7891 2.6562s1.3672 2.806 1.3672 4.5898c-2e-5 2.7995-0.82684 4.9609-2.4805 6.4844s-4.0039 2.2852-7.0508 2.2852c-3.0339 0-5.3776-0.76172-7.0312-2.2852s-2.4805-3.6849-2.4805-6.4844c0-1.7969 0.46224-3.3333 1.3867-4.6094s2.207-2.1549 3.8477-2.6367m0.60547-5.918c-1e-5 1.1458 0.32551 2.0573 0.97656 2.7344 0.66405 0.66408 1.5625 0.99611 2.6953 0.99609 1.1458 2e-5 2.0443-0.33201 2.6953-0.99609 0.66405-0.67706 0.99608-1.5885 0.9961-2.7344-2e-5 -1.1328-0.33205-2.0247-0.9961-2.6758-0.65105-0.66404-1.5495-0.99607-2.6953-0.99609-1.1198 2e-5 -2.0117 0.33206-2.6758 0.99609s-0.9961 1.556-0.99609 2.6758" fill="url(#a)"/>
   <path d="m481.62 123.34v57.281h2.9062v-57.281h-2.9062z" fill="url(#d)"/>
   <path d="m531.62 123.34v57.281h2.9062v-57.281h-2.9062z" fill="url(#c)"/>
   <path transform="scale(-1)" d="m-534.07-123.45h51.789v2.8765h-51.789z" fill="url(#b)"/>
  </g>
  <g transform="translate(-17.598 545.37)">
   <path d="m479.42 119.69h56.569v67.882h-56.569z" fill="#2e3436"/>
   <path transform="matrix(1 0 0 .88215 2 15.589)" d="m478.56 132.27h56.569v67.882h-56.569z" fill="#2e3436" filter="url(#e)" opacity=".75"/>
   <path transform="matrix(1.2783 0 0 1.2783 -688.99 26.04)" d="m933.61 97.694c-1e-5 -0.69009 0.23436-1.2695 0.70312-1.7383s1.0417-0.70311 1.7188-0.70313c0.69009 2e-5 1.2695 0.23439 1.7383 0.70313s0.70311 1.0482 0.70313 1.7383c-2e-5 0.6771-0.23439 1.25-0.70313 1.7188s-1.0482 0.70313-1.7383 0.70313c-0.67709 1e-5 -1.25-0.22785-1.7188-0.68359-0.46876-0.46874-0.70313-1.0482-0.70312-1.7383m2.4219-10.254c-1.3281 2e-5 -2.2982 0.81383-2.9102 2.4414s-0.91797 4.2318-0.91797 7.8125c0 3.5677 0.30599 6.1654 0.91797 7.793s1.582 2.4414 2.9102 2.4414c1.3411 0 2.3177-0.8138 2.9297-2.4414s0.91795-4.2252 0.91797-7.793c-2e-5 -3.5807-0.30601-6.1849-0.91797-7.8125s-1.5886-2.4414-2.9297-2.4414m-9.6289 10.254c0-5.0521 0.80078-8.8346 2.4024-11.348 1.6016-2.526 4.0104-3.789 7.2266-3.7891 3.2292 3e-5 5.6445 1.2565 7.2461 3.7695s2.4023 6.3021 2.4024 11.367c-2e-5 5.0521-0.8008 8.8346-2.4024 11.348s-4.0169 3.7695-7.2461 3.7695c-3.2162 0-5.625-1.2565-7.2266-3.7695-1.6016-2.526-2.4024-6.3086-2.4024-11.348" fill="url(#a)"/>
   <path d="m481.62 123.34v57.281h2.9062v-57.281h-2.9062z" fill="url(#d)"/>
   <path d="m531.62 123.34v57.281h2.9062v-57.281h-2.9062z" fill="url(#c)"/>
   <path transform="scale(-1)" d="m-534.07-123.45h51.789v2.8765h-51.789z" fill="url(#b)"/>
  </g>
  <g transform="translate(62.803 241)">
   <path d="m479.42 119.69h56.569v67.882h-56.569z" fill="#2e3436"/>
   <path transform="matrix(1 0 0 .88215 2 15.589)" d="m478.56 132.27h56.569v67.882h-56.569z" fill="#2e3436" filter="url(#e)" opacity=".75"/>
   <path transform="matrix(1.2783 0 0 1.2783 -688.99 26.04)" d="m934.72 99.198h-3.0859v-5.0781h3.0859c1.4323 2e-5 2.539-0.27993 3.3203-0.83984 0.79425-0.5729 1.1914-1.3737 1.1914-2.4023-2e-5 -1.0807-0.39716-1.9206-1.1914-2.5195-0.78126-0.61196-1.888-0.91794-3.3203-0.91797-1.0938 2e-5 -2.2656 0.13674-3.5156 0.41016s-2.5456 0.6706-3.8867 1.1914v-5.2344c1.3411-0.40362 2.6628-0.70961 3.9648-0.91797 1.3021-0.22133 2.5521-0.332 3.75-0.33203 3.0729 3e-5 5.4687 0.6706 7.1875 2.0117s2.5781 3.1901 2.5781 5.5469c-2e-5 1.7318-0.49481 3.1511-1.4844 4.2578-0.98961 1.0938-2.4024 1.8099-4.2383 2.1484 2.0833 0.3646 3.6719 1.1979 4.7656 2.5 1.0937 1.2891 1.6406 2.9883 1.6406 5.0977-3e-5 2.8255-0.90497 4.9805-2.7148 6.4648s-4.4401 2.2266-7.8906 2.2266c-1.4714 0-2.9232-0.1237-4.3555-0.37109-1.4193-0.2474-2.78-0.60547-4.082-1.0742v-5.3516c1.224 0.61198 2.5456 1.0807 3.9648 1.4062 1.4193 0.3125 2.9102 0.46875 4.4727 0.46875s2.7995-0.35807 3.7109-1.0742c0.91145-0.72916 1.3672-1.7057 1.3672-2.9297-1e-5 -1.4974-0.45574-2.6497-1.3672-3.457-0.91147-0.8203-2.2005-1.2305-3.8672-1.2305" fill="url(#a)"/>
   <path d="m481.62 123.34v57.281h2.9062v-57.281h-2.9062z" fill="url(#d)"/>
   <path d="m531.62 123.34v57.281h2.9062v-57.281h-2.9062z" fill="url(#c)"/>
   <path transform="scale(-1)" d="m-534.07-123.45h51.789v2.8765h-51.789z" fill="url(#b)"/>
  </g>
  <g transform="translate(62.803 342.46)">
   <path d="m479.42 119.69h56.569v67.882h-56.569z" fill="#2e3436"/>
   <path transform="matrix(1 0 0 .88215 2 15.589)" d="m478.56 132.27h56.569v67.882h-56.569z" fill="#2e3436" filter="url(#e)" opacity=".75"/>
   <path transform="matrix(1.2783 0 0 1.2783 -688.99 26.04)" d="m936.56 97.636c-1.25 1e-5 -2.207 0.45574-2.8711 1.3672-0.65105 0.89845-0.97657 2.207-0.97656 3.9258-1e-5 1.7057 0.32551 3.0143 0.97656 3.9258 0.66405 0.89844 1.6211 1.3477 2.8711 1.3477s2.207-0.44922 2.8711-1.3477c0.67706-0.91145 1.0156-2.22 1.0156-3.9258s-0.33856-3.0143-1.0156-3.9258c-0.66408-0.91144-1.6211-1.3672-2.8711-1.3672m7.5586-13.867v5.2344c-1.0287-0.58591-2.0182-1.0221-2.9688-1.3086-0.93752-0.29945-1.8425-0.44919-2.7148-0.44922-2.0833 2e-5 -3.6719 0.70315-4.7656 2.1094-1.0807 1.3932-1.6471 3.457-1.6992 6.1914 0.61197-0.84634 1.3932-1.4778 2.3438-1.8945 0.95051-0.42967 2.0703-0.64451 3.3594-0.64453 2.6302 2e-5 4.6614 0.83335 6.0937 2.5 1.4323 1.6537 2.1484 4.0039 2.1484 7.0508-2e-5 3.2682-0.80731 5.8008-2.4219 7.5976-1.6016 1.7969-3.8607 2.6953-6.7774 2.6953-3.5547-1e-5 -6.1393-1.1914-7.7539-3.5742-1.6016-2.3828-2.4024-6.2305-2.4024-11.543 0-5.0521 0.98307-8.8346 2.9492-11.348 1.9661-2.526 4.9154-3.789 8.8477-3.7891 0.91144 3e-5 1.8489 0.09769 2.8125 0.29297 0.97654 0.19534 1.9596 0.48831 2.9492 0.87891" fill="url(#a)"/>
   <path d="m481.62 123.34v57.281h2.9062v-57.281h-2.9062z" fill="url(#d)"/>
   <path d="m531.62 123.34v57.281h2.9062v-57.281h-2.9062z" fill="url(#c)"/>
   <path transform="scale(-1)" d="m-534.07-123.45h51.789v2.8765h-51.789z" fill="url(#b)"/>
  </g>
  <g transform="translate(62.803 443.91)">
   <path d="m479.42 119.69h56.569v67.882h-56.569z" fill="#2e3436"/>
   <path transform="matrix(1 0 0 .88215 2 15.589)" d="m478.56 132.27h56.569v67.882h-56.569z" fill="#2e3436" filter="url(#e)" opacity=".75"/>
   <path transform="matrix(1.2783 0 0 1.2783 -688.99 26.04)" d="m927.96 111.85v-5.2539c1.0286 0.59896 2.0117 1.0417 2.9492 1.3281 0.95052 0.28646 1.862 0.42969 2.7344 0.42969 2.0703 0 3.6458-0.6901 4.7266-2.0703 1.0937-1.3932 1.6732-3.47 1.7383-6.2305-0.61199 0.84636-1.3932 1.4844-2.3438 1.9141-0.95053 0.41668-2.0768 0.62501-3.3789 0.625-2.6172 1e-5 -4.6419-0.82681-6.0742-2.4805-1.4323-1.6666-2.1484-4.0234-2.1484-7.0703 0-3.2552 0.80078-5.7747 2.4023-7.5586s3.8672-2.6758 6.7969-2.6758c3.5547 3e-5 6.1328 1.1914 7.7344 3.5742 1.6146 2.3698 2.4219 6.2044 2.4219 11.504-2e-5 5.0391-0.9831 8.8216-2.9492 11.348-1.9662 2.513-4.9154 3.7695-8.8477 3.7695-0.91146-1e-5 -1.8555-0.09766-2.832-0.29297-0.96355-0.19532-1.9401-0.48177-2.9297-0.85938m7.5586-14.082c1.237 1e-5 2.181-0.4492 2.832-1.3477 0.66405-0.91144 0.99608-2.2266 0.99609-3.9453-1e-5 -1.7057-0.33204-3.0078-0.99609-3.9062-0.65106-0.91143-1.5951-1.3672-2.832-1.3672-1.25 2e-5 -2.2136 0.45575-2.8906 1.3672-0.66407 0.89846-0.9961 2.2005-0.99609 3.9062s0.33202 3.0143 0.99609 3.9258c0.67708 0.91147 1.6406 1.3672 2.8906 1.3672" fill="url(#a)"/>
   <path d="m481.62 123.34v57.281h2.9062v-57.281h-2.9062z" fill="url(#d)"/>
   <path d="m531.62 123.34v57.281h2.9062v-57.281h-2.9062z" fill="url(#c)"/>
   <path transform="scale(-1)" d="m-534.07-123.45h51.789v2.8765h-51.789z" fill="url(#b)"/>
  </g>
  <g transform="translate(62.803 545.37)">
   <path d="m479.42 119.69h56.569v67.882h-56.569z" fill="#2e3436"/>
   <path transform="matrix(1 0 0 .88215 2 15.589)" d="m478.56 132.27h56.569v67.882h-56.569z" fill="#2e3436" filter="url(#e)" opacity=".75"/>
   <path transform="matrix(1.2783 0 0 1.2783 -688.99 26.04)" d="m937.81 83.534-1.8555 7.3047h3.9648l1.8359-7.3047h4.375l-1.8945 7.3047h3.7695v4.1992h-4.8047l-1.4453 5.7226h4.0039v4.1992h-5.0391l-1.8359 7.2852h-4.3164l1.8359-7.2852h-4.0039l-1.8359 7.2852h-4.3164l1.8359-7.2852h-4.043v-4.1992h5.0781l1.4453-5.7226h-4.2773v-4.1992h5.3516l1.8359-7.3047h4.3359m1.0742 11.504h-4.0039l-1.4453 5.7226h4.0039l1.4453-5.7226" fill="url(#a)"/>
   <path d="m481.62 123.34v57.281h2.9062v-57.281h-2.9062z" fill="url(#d)"/>
   <path d="m531.62 123.34v57.281h2.9062v-57.281h-2.9062z" fill="url(#c)"/>
   <path transform="scale(-1)" d="m-534.07-123.45h51.789v2.8765h-51.789z" fill="url(#b)"/>
  </g>
 </g>
</svg>
